<svg xmlns="http://www.w3.org/2000/svg" viewBox="-113.7635 206.6533 771.3147 501.3673" width="771.3147" height="501.3673" role="img" aria-labelledby="aai29prhyqlcj7e724i3tswh6rgvaury" class="unlock-vecteezy__path"><desc id="aai29prhyqlcj7e724i3tswh6rgvaury">Decorative image</desc>
  <path fill-rule="evenodd" clip-rule="evenodd" d="M -111.285 207.337 C -108.9 205.944 -105.838 206.747 -104.445 209.132 C 5.919 398.044 157.539 498.59 295.838 533.863 C 331.174 542.876 365.572 547.621 398.162 548.511 C 382.183 511.274 374.035 471.674 375.287 434.743 C 376.778 390.791 391.621 350.275 422.857 322.377 C 484.883 266.978 556.194 278.607 601.311 317.117 C 646.145 355.385 666.081 421.369 623.712 474.048 C 581.048 527.095 504.482 557.673 413.827 558.625 C 414.847 560.694 415.893 562.754 416.963 564.803 C 460.59 648.286 545.329 713.11 651.708 694.932 C 654.43 694.467 657.014 696.296 657.479 699.018 C 657.944 701.74 656.115 704.324 653.393 704.789 C 541.391 723.928 453.023 655.397 408.101 569.435 C 406.228 565.852 404.43 562.237 402.707 558.594 C 367.818 558.036 331.008 553.153 293.367 543.553 C 152.327 507.58 -1.444 405.264 -113.08 214.176 C -114.473 211.792 -113.669 208.73 -111.285 207.337 Z M 409.147 548.666 C 499.587 548.735 574.958 518.711 615.92 467.781 C 653.868 420.598 636.916 360.655 594.819 324.723 C 553.006 289.033 487.344 278.189 429.518 329.835 C 400.829 355.459 386.706 393.089 385.282 435.082 C 384.039 471.73 392.496 511.44 409.147 548.666 Z" fill="#FF7900" transform="matrix(0.9999999999999999, 0, 0, 0.9999999999999999, -5.684341886080802e-14, -2.842170943040401e-14)"></path>
</svg>